<svg width="24" height="24" viewBox="0 0 24 24" fill="none" xmlns="http://www.w3.org/2000/svg">
<path fill-rule="evenodd" clip-rule="evenodd" d="M10.75 2.56687C11.13 2.34745 11.5612 2.23193 12 2.23193C12.4388 2.23193 12.8699 2.34745 13.25 2.56687L19.544 6.20087C19.924 6.42029 20.2396 6.73587 20.459 7.11591C20.6785 7.49594 20.794 7.92704 20.794 8.36587V15.6339C20.794 16.0727 20.6785 16.5038 20.459 16.8838C20.2396 17.2639 19.924 17.5795 19.544 17.7989L13.25 21.4329C12.8699 21.6523 12.4388 21.7678 12 21.7678C11.5612 21.7678 11.13 21.6523 10.75 21.4329L4.45599 17.7989C4.07595 17.5795 3.76037 17.2639 3.54095 16.8838C3.32153 16.5038 3.206 16.0727 3.20599 15.6339V8.36587C3.206 7.92704 3.32153 7.49594 3.54095 7.11591C3.76037 6.73587 4.07595 6.42029 4.45599 6.20087L10.75 2.56687ZM8.01899 8.54687L13.817 5.20387L15.818 6.35887L10.02 9.70187L8.01899 8.54687Z" fill="white"/>
</svg>
