<svg width="61" height="61" viewBox="0 0 61 61" fill="none" xmlns="http://www.w3.org/2000/svg">
<g clip-path="url(#clip0_150_37)">
<path d="M24 50.2001L22 58.2001C22 58.2001 40.2 58.7001 47.8 52.5001C55.4 46.3001 53.5 46.7001 53.5 46.7001L45.5 39.1001L24 50.2001Z" fill="#F2C57E"/>
<path d="M29.3 51.3001C29.3 51.3001 29.9 57.2001 31.9 58.3001C31.9 58.3001 22.2 59.0001 22.4 56.4001L23.8 50.1001L29.3 51.3001Z" fill="#BD704B"/>
<path d="M22.5 36.6001C22.5 36.6001 24.3 39.1001 24.7 42.8001C25.1 46.5001 20.7 49.7001 28.8 51.2001C36 52.5001 51.7 45.7001 46.6 40.6001C43.4 37.4001 41.2 34.8001 42.6 28.6001C44.1 22.4001 35.5 18.6001 35.5 18.6001L22.5 36.6001Z" fill="#F2C57E"/>
<path d="M41.6 34.6001C41.6 34.6001 44.3 41.7001 53.1 47.0001L53.8 45.4001C53.8 45.4001 46.4 43.1001 42.4 34.3001C38.4 25.5001 41.4 34.6001 41.6 34.6001ZM25.8 9.50008C25.8 9.50008 20.7 11.7001 23 27.5001C23.7 36.1001 20.1 35.4001 19.4 34.6001C18.6 33.9001 21.8 29.5001 20 28.0001C18.2 26.5001 16 27.9001 13.8 23.6001C11 18.0001 14.3 20.3001 16.9 15.5001C18.8 12.0001 20.2 10.0001 21.8 10.2001C23.1 10.3001 24.3 8.40008 25.8 9.50008Z" fill="#BD704B"/>
<path d="M15.6001 27.6001C15.6001 27.6001 15.8001 31.3001 15.1001 33.4001C14.0001 36.5001 16.8 40.7001 20.9 36.2001C25 31.7001 15.6001 27.6001 15.6001 27.6001Z" fill="#F2C57E"/>
<path d="M36.4 10.5002C36.4 10.5002 28.5 6.50022 22.2 11.0002C15.9 15.5002 20.9 14.9002 17.1 20.6002C13.3 26.3002 16.4 39.1002 28.6 39.3002C40.8 39.5002 40.6 16.1002 40.6 16.1002C40.6 16.1002 39.4 10.9002 36.4 10.5002Z" fill="#F2C57E"/>
<path d="M33.7 36.5C33.7 36.5 29.9 39.9 30.1 42.2C30.2 44.5 39.6 44 31.3 46.3C29 46.9 29.1 50.7 30.9 51.4C32.7 52.1 24 50.7 24.1 47.8C24.2 45 25.4 39.9 22.5 38C22.3 38 29.6 40.2 33.7 36.5Z" fill="#BD704B"/>
<path d="M23.9 47.5998C23.9 47.5998 31.4 51.1998 39.1 46.9998C44.8 43.8998 46.6 40.4998 46 39.7998C46 39.7998 47.4 39.8998 48.7 41.8998C49.7 43.3998 48.1 47.9998 39.7 51.4998C31.8 54.6998 24.7 52.6998 23.3 51.2998C22 49.8998 23.9 47.5998 23.9 47.5998Z" fill="#AD4646"/>
<path d="M20.9 19.4C20.4 19.4 20 19 20 18.5V16.4C20 15.9 20.4 15.5 20.9 15.5C21.4 15.5 21.8 15.9 21.8 16.4V18.5C21.8 19 21.4 19.4 20.9 19.4Z" fill="#3F2418"/>
<path d="M23.2 17C23.2 17 16.6 21.7 14.1 22.7C11.6 23.7 11.7 26.4 15.1 29.2C18.5 32 28.6 24.6 23.2 17Z" fill="#F2C57E"/>
<path d="M13.6 27.5998C13.6 27.5998 16.1 30.2998 14.6 33.2998C13.6 35.2998 14.6 39.0998 18.3 37.9998C18.3 37.9998 14 38.1998 15.7 33.3998C16.3 31.5998 16.3 28.8998 13.6 27.5998ZM34.8 9.89979C34.8 9.89979 42 12.7998 39.4 28.5998C38.5 37.1998 42.7 36.4998 43.7 35.6998C44.6 34.9998 44.7 32.1998 46.8 30.7998C48.8 29.2998 53.8 24.8998 51.3 20.4998C48.8 16.0998 46.2 16.9998 44.6 14.0998C43.1 11.4998 42.1 11.0998 40.3 11.0998C38.8 11.0998 36.7 8.89979 34.8 9.89979Z" fill="#BD704B"/>
<path d="M32.8 20.3C32.3 20.3 31.8 19.9 31.8 19.3V17C31.8 16.5 32.2 16 32.8 16C33.3 16 33.8 16.4 33.8 17V19.4C33.8 19.9 33.3 20.3 32.8 20.3Z" fill="#3F2418"/>
<path d="M31.2001 15.3999C31.2001 15.3999 29.0001 14.1999 30.8001 13.1999C33.1001 11.8999 35.7001 13.9999 36.1001 15.1999C36.1001 15.1999 33.4001 12.6999 31.2001 13.8999C30.0001 14.4999 31.2001 15.3999 31.2001 15.3999ZM21.7001 13.4999C21.6215 13.3212 21.4788 13.1785 21.3001 13.0999C21.0001 12.8999 20.5001 12.8999 20.1001 12.9999C19.7001 13.0999 19.4001 13.3999 19.1001 13.5999C19.3001 13.0999 19.6001 12.6999 20.1001 12.4999C20.3001 12.3999 20.6001 12.3999 20.8001 12.3999C21.3001 12.3999 21.8001 12.5999 22.2001 12.8999C22.6001 13.1999 22.8001 13.6999 22.8001 14.1999C22.7001 14.5999 22.5001 14.9999 22.1001 15.0999C22.0001 15.0999 21.9001 15.1999 21.9001 15.0999C21.9001 14.9999 22.0001 14.8999 22.0001 14.7999C22.1001 14.5999 22.1001 14.3999 22.0001 14.0999C22.0001 13.9999 21.9001 13.6999 21.7001 13.4999ZM18.2001 32.4999C18.2001 32.4999 20.4001 39.8999 28.6001 38.0999C36.1001 36.3999 37.2001 29.9999 37.2001 29.9999C37.7001 31.4999 35.6001 40.1999 25.4001 39.3999C18.0001 38.7999 18.2001 32.4999 18.2001 32.4999Z" fill="#BD704B"/>
<path d="M19.8001 36.1001C19.8001 36.1001 19.5001 39.0001 15.3001 37.5001C15.3001 37.5001 17.4001 39.9001 20.0001 37.3001C21.2001 36.0001 19.8001 36.1001 19.8001 36.1001ZM13.2001 25.4001C12.7001 25.1001 12.7001 24.3001 13.0001 23.8001C13.4001 23.3001 14.2001 22.9001 14.8001 22.6001C17.9001 21.2001 21.2001 19.3001 23.5001 16.6001C23.5001 16.6001 16.5001 21.5001 12.8001 22.8001C11.0001 23.5001 13.2001 25.4001 13.2001 25.4001Z" fill="#BD704B"/>
<path d="M12.4 23.9001C11.3 25.0001 13.1 28.3001 15.3 29.3001C17.8 30.4001 21.4 26.1001 20.7 24.9001C19.9 23.3001 14.7 21.6001 12.4 23.9001Z" fill="#AD4646"/>
<mask id="mask0_150_37" style="mask-type:luminance" maskUnits="userSpaceOnUse" x="12" y="22" width="9" height="8">
<path d="M12.4 23.9001C11.3 25.0001 13.1 28.3001 15.3 29.3001C17.8 30.4001 21.4 26.1001 20.7 24.9001C19.9 23.3001 14.7 21.6001 12.4 23.9001V23.9001Z" fill="white"/>
</mask>
<g mask="url(#mask0_150_37)">
<path d="M16.9 27.7C16.7 27.4 16.7 26.9 16.9 26.7C17 26.6 17.1 26.5 17.2 26.5C17.4 26.4 17.6 26.4 17.7 26.4C18.6 26.3 19.6 26.7 20.2 27.4C20.7 27.9 20.5 28.4 20 28.7C19.4 29 18.6 29.1 17.9 28.8C17.4476 28.5625 17.0935 28.1729 16.9 27.7ZM14.6 27.7C14.7 27.4 14.8 27 14.6 26.7C14.5 26.6 14.4 26.5 14.3 26.5C14.2 26.4 14 26.4 13.9 26.4C13.2 26.3 12.5 26.7 11.9 27.4C11.5 27.9 11.7 28.4 12.1 28.7C12.6 29 13.2 29.1 13.7 28.8C13.9324 28.7101 14.1375 28.5615 14.2952 28.3687C14.453 28.1759 14.558 27.9455 14.6 27.7Z" fill="#6A2524"/>
</g>
<path d="M30.7 60.5C14.2 60.5 0.699951 47 0.699951 30.5C0.699951 14 14.2 0.5 30.7 0.5C47.2 0.5 60.7 14 60.7 30.5C60.7 47 47.3 60.5 30.7 60.5ZM30.7 4.5C16.4 4.5 4.69995 16.2 4.69995 30.5C4.69995 44.8 16.4 56.5 30.7 56.5C45 56.5 56.7 44.8 56.7 30.5C56.7 16.2 45.1 4.5 30.7 4.5Z" fill="#AD4646"/>
<path d="M22.2001 10.3999C22.2001 10.3999 31.3001 6.5999 37.9001 12.3999C37.9001 12.3999 37.7001 9.6999 32.6001 8.5999C29.9001 7.9999 23.9001 8.0999 22.2001 10.3999Z" fill="#BD704B"/>
<path d="M21.4 33.4997C21.7314 33.4997 22 33.3206 22 33.0997C22 32.8788 21.7314 32.6997 21.4 32.6997C21.0687 32.6997 20.8 32.8788 20.8 33.0997C20.8 33.3206 21.0687 33.4997 21.4 33.4997Z" fill="#BD704B"/>
<path d="M25.3001 35.4997C25.6314 35.4997 25.9001 35.3206 25.9001 35.0997C25.9001 34.8788 25.6314 34.6997 25.3001 34.6997C24.9687 34.6997 24.7001 34.8788 24.7001 35.0997C24.7001 35.3206 24.9687 35.4997 25.3001 35.4997Z" fill="#BD704B"/>
<path d="M28.8001 35.4001C29.1314 35.4001 29.4001 35.221 29.4001 35.0001C29.4001 34.7792 29.1314 34.6001 28.8001 34.6001C28.4687 34.6001 28.2001 34.7792 28.2001 35.0001C28.2001 35.221 28.4687 35.4001 28.8001 35.4001Z" fill="#BD704B"/>
<path d="M27.1 37.1999C27.4314 37.1999 27.7 37.0208 27.7 36.7999C27.7 36.579 27.4314 36.3999 27.1 36.3999C26.7686 36.3999 26.5 36.579 26.5 36.7999C26.5 37.0208 26.7686 37.1999 27.1 37.1999Z" fill="#BD704B"/>
<path d="M22.7001 36.0998C23.0315 36.0998 23.3001 35.9207 23.3001 35.6998C23.3001 35.4789 23.0315 35.2998 22.7001 35.2998C22.3687 35.2998 22.1001 35.4789 22.1001 35.6998C22.1001 35.9207 22.3687 36.0998 22.7001 36.0998Z" fill="#BD704B"/>
</g>
<defs>
<clipPath id="clip0_150_37">
<rect width="61" height="61" fill="white"/>
</clipPath>
</defs>
</svg>
